/* XPM */
static char *f31292a1807443c0af7df0171712bcd67oSnCcHjEr0xCi53[] = {
/* columns rows colors chars-per-pixel */
"64 64 32 1 ",
"  c #101E29",
". c #D17360",
"X c #4B9620",
"o c #8BAF1D",
"O c #8EB21E",
"+ c #91B61F",
"@ c #94B91F",
"# c #92B620",
"$ c #96BB21",
"% c #99BE23",
"& c #9CC325",
"* c #9FC824",
"= c #9EC329",
"- c #A0C627",
"; c #A3CB26",
": c #A1C629",
"> c #A5CD29",
", c #A8CF2B",
"< c #A6D027",
"1 c #A7D029",
"2 c #AAD42A",
"3 c #AED82D",
"4 c #B1DA2E",
"5 c #ADD530",
"6 c #AFD930",
"7 c #B2DC31",
"8 c #B7E133",
"9 c #EDA579",
"0 c #9AD47D",
"q c #0763D0",
"w c #038FCD",
"e c #F8F8F8",
/* pixels */
"##$$%=%$$$@@@+$$%&%##$++$$%=&@@$@@##$$=&$#$$@@@&&-%@%$@$$@%%--@%",
"+%$++$#O@=&@%@&$@@$%$O%:$$%&%+%=$%$$&$$$$%#o&-@%%&$@%&$%$+@$$++&",
":&@@%%+$$%$-,:1*+$&,::23--,;;>;*$;,>,%##*,:>32=;>;;>>&@>:&@#o++:",
"%++$:,-,%@==1>3>%;=1,73>;>73231<&:113-&-:>243>-<72421;$>=>&#+++&",
"##o$$,3,%-<<,111><111<1>;>276,:211<<11><1,1<2:<<367:<<>;;<%%@%$+",
"+$%&&:12>:12>>213232212232>122>>22>>123342122232>,32>>21-@-;%%%%",
"+@::23112134<<2<321121>37743121243122122,12>>37742221243;-<%&@+@",
"O$$:,1142244431111><3:<22771322234421>>1>12>12374>2232441;;&&%+%",
"#$$&;22443223224>13422<211<22476224222><44212<1,223443222<3>$$%&",
"&%&;;3213222,,247377<24441>321322111444474224241<2223222,,,,%%:%",
"$&12<4422,111;124731<22342244211121>2277411244422442>122,>1>:%%#",
"+%&><3443:13222224<>22131123442;22222222<12122>224441:222<2<>%#$",
"&&%>>222212742421124<2442112222<274242114213442122222<27234<>=*@",
"=%&=;,1222127442>>34484211>1<222137432><44774<<><>2222174422:-&>",
"@@><12238222<21111,343222412234231121111<4332232<224423212<>>$+&",
"&-;4421274432321<31121222742244343222<221211223442237342222><&+%",
"@%<1121122212442472122>>2222>1231<3432742>22>>2222>1221134233=@@",
"++>2224223><21447311121122134222>221686221221222133231,222732:$@",
"&=24328442232<<4>>3322424723744333<<22>122133377238342321>22>;&@",
"&&>711233>3743421>3437427711332>343333>>4437317712232<473342:&&;",
"$@*>1>3221<3733>12137422211,321123643>1223732221>1322127442>1;&=",
"@%;13223121122232221122212413212<1222222212222132232121122132>&@",
"$%;24332221111224431221113442232211123742122111343222211112342@@",
"+>1>>31>2733211222122>132112112732212222122;222122>1342321222<@*",
"==><31,2422237321>>38373<2211  222  22>>177373222>1232237411:-@>",
":;><7724221>2472>11234421384 ee > ee 2>113373113834322:1374>;$+%",
"@-;>1742-21,12222221111>>137 ee   ee 12221212:11467>>211131<<&#$",
"+@;>;,23>;221>224442212222> eeeeeeeee 6332111232>>22><22:2222=%$",
"$=26232221331>2243122>>2773 eeeeeeeeee 3112>138432221242><233;#$",
"@;<77212223742111<>>2><2287 eee999999e 1>12>12384122224432<>;;#@",
"+@;>>,2443223323>14422<22>2 ee99999999 133221211<2343323423>;-=&",
"&%-1:222322221277277224362: ee99 999 9 38412434>13<3321211372*:&",
"@=<3234211121><27422<234442 ee9. 999 . 731123442243<11121>215-$$",
"@@*;23442>222122242>22<2<<2 ee99999999 21,21121134441>22211<-$+$",
"&&&;>2222,1742421124<2442,1 eee999999e 132134421222211282321;=%%",
"&&&-;>1222134442>>444772<,  eeeeeeeeee >3747421>112222174722;;&:",
"@@><>2138232<221121373222 00          111343224221<4424122,>;$+-",
"&&;743224443222<121121212 0 www0www0  2212112<4442247442221>1*+%",
"@&>2121122212442442122>,2 X 99 XwwwX 9 42<22>>4121>1231<27223&@+",
"++><224222>13147732112112 X 99 XwwwX 9 32,121122144<22>223762;%+",
"&-2732744324<><31122224447 X  qqqqqq  1122224244147442421>32>>@&",
"&&171>344>274242>>44244<77,   q    q 2,>44473<7711343<472332;&&*",
"$%*>1>2211<374411114742122,13 9 14 9 11114442221,1221124443>>>&-",
"@%;>31341211222222222222222132,121121222212322132242,2112212<>%@",
"+$-27431222121234431221114442222111124443<21111444122111112442@@",
"+<<<122>1432311222>32>1321121>3423212132121>132113,14423212222@&",
"-:><2<>1331337211>137373122>1242224421,>177473122<,2322344<<;=@>",
":;>18447221>1673>1123442<3844422,>2772>,13474114824421>>374>=%+&",
"@-->2773:11>1241122221<1>24742>11123312221211:,1777>>2>>232<<%+$",
"+$>;;,13>>221>224242211212>>22>>22;12333421222321>21>>22><221-&@",
"$&2632221134<122441221>37433221133;<22431221,37432221242>2223>$%",
"+>,642<21327422111>12>>23871222134322121>12:12774222224422<1;;+@",
"+$;>,<2447144313>124221111122443223231>13321211122344323413,:>&@",
"%$;,:222322211277287224362;32242221227427422424><3<3312211372-:*",
"%%,3233211122>127732<<34431432<1122>137432<23382242211221>21,&%@",
"+$%-23442>1221<2141<22<31124442>12212133112112<124441>212>,;%%+@",
"%&@&<4222>1742421123<2442122222>2832322<2212742122141>3722;&&+@&",
":$@-&&>222,37342>>34477211>1<223167632>>3747421>,<2222:2,2=@o+&=",
"$$@%@&;2722112111113442222<1<44222221,1113432222<1<742;&11%+@++-",
"$$#-&%%,72332221<2>221212742<44232122<1112122<37321471>%->*O@@O&",
"+o+$%%#&-%;1<43<331121>:1222,>1>1<242,422<2<>;2212>><;%@%:$$&%@@",
"++$@#$%$@$$;2<26,>>;>2&&>-*11:>&%><<362><-2<&*;=-2>->$O@$$=&=@@+",
"%%%-%#:%%&$&-$%>$%>&;;=&=-@=:&=%@-&O=>#&-*;;&&-:$:;&:%%$+O$%+@$%",
"%#%:%#%%%#%&%$%$++*-%&%@&:@@%&$+&&&@%$O$==%=$+:=+#%&##&%$$$@O+&&"
};
