/* XPM */
static char *_3410abce697493ed1dfb2b08a1927b5ZMidLeeFrehe27T3[] = {
/* columns rows colors chars-per-pixel */
"64 64 165 2 ",
"   c #2F2F2E",
".  c #7D5031",
"X  c #8B5936",
"o  c #99643E",
"O  c #8BAF1D",
"+  c #8EB21E",
"@  c #91B61F",
"#  c #94B91F",
"$  c #92B620",
"%  c #96BB21",
"&  c #99BE23",
"*  c #9CC325",
"=  c #9FC824",
"-  c #9EC329",
";  c #A0C627",
":  c #A3CB26",
">  c #A0C52A",
",  c #A1C729",
"<  c #A1C729",
"1  c #A0C928",
"2  c #A1C928",
"3  c #A1C829",
"4  c #A2C928",
"5  c #A2C929",
"6  c #A2CA28",
"7  c #A2CA29",
"8  c #A3CA29",
"9  c #A2C92A",
"0  c #A3C92A",
"q  c #A3C92B",
"w  c #A2C82A",
"e  c #A4CB2A",
"r  c #A4CB2B",
"t  c #A3CC28",
"y  c #A4CC28",
"u  c #A4CD28",
"i  c #A4CC29",
"p  c #A5CC29",
"a  c #A4CD29",
"s  c #A5CD29",
"d  c #A5CE28",
"f  c #A4CE29",
"g  c #A5CE29",
"h  c #A5CF29",
"j  c #A6CE28",
"k  c #A6CF28",
"l  c #A6CE29",
"z  c #A6CF29",
"x  c #A7CF29",
"c  c #A4CC2A",
"v  c #A4CD2A",
"b  c #A5CD2A",
"n  c #A5CC2B",
"m  c #A5CE2A",
"M  c #A5CF2A",
"N  c #A6CF2A",
"B  c #A7CF2A",
"V  c #A6CE2B",
"C  c #A7CE2B",
"Z  c #A6CF2B",
"A  c #A7CF2B",
"S  c #A3C82C",
"D  c #A4C92C",
"F  c #A4CA2C",
"G  c #A5CC2C",
"H  c #A7CE2E",
"J  c #A7CF2E",
"K  c #A5CD29",
"L  c #A8CE2C",
"P  c #A8CF2B",
"I  c #A6D027",
"U  c #A7D127",
"Y  c #A6D028",
"T  c #A7D028",
"R  c #A6D029",
"E  c #A7D029",
"W  c #A7D129",
"Q  c #A7D02A",
"!  c #A7D02B",
"~  c #A7D029",
"^  c #A8D028",
"/  c #A8D128",
"(  c #A8D029",
")  c #A8D129",
"_  c #A9D129",
"`  c #A8D228",
"'  c #A9D228",
"]  c #A9D328",
"[  c #A8D229",
"{  c #A9D229",
"}  c #A9D329",
"|  c #AAD329",
" . c #A8D12A",
".. c #A8D22A",
"X. c #A9D22A",
"o. c #A9D32A",
"O. c #A9D22B",
"+. c #A9D32B",
"@. c #AAD32A",
"#. c #AAD32B",
"$. c #AAD429",
"%. c #AAD42A",
"&. c #ABD42A",
"*. c #ABD52A",
"=. c #AAD42B",
"-. c #ABD42B",
";. c #ABD52B",
":. c #ACD42B",
">. c #ACD52B",
",. c #ACD62A",
"<. c #ACD62B",
"1. c #ADD62B",
"2. c #ADD72B",
"3. c #A8D02C",
"4. c #AAD12D",
"5. c #A9D22C",
"6. c #AAD32C",
"7. c #AAD32D",
"8. c #ABD32D",
"9. c #ABD32E",
"0. c #ABD52C",
"q. c #ABD42D",
"w. c #ADD52D",
"e. c #ACD62C",
"r. c #ACD72C",
"t. c #ADD72C",
"y. c #AED72D",
"u. c #ACD62E",
"i. c #ADD62E",
"p. c #ADD72E",
"a. c #ADD62F",
"s. c #ADD72F",
"d. c #AED72E",
"f. c #AED62F",
"g. c #AAD42A",
"h. c #ADD82C",
"j. c #AED82C",
"k. c #AED82D",
"l. c #AFD82D",
"z. c #AFD92D",
"x. c #AED82E",
"c. c #AFD82E",
"v. c #AFD92E",
"b. c #AED82D",
"n. c #B0DA2E",
"m. c #B0DA2F",
"M. c #B2DB2F",
"N. c #B0DA2D",
"B. c #B2DC2F",
"V. c #B1DA2E",
"C. c #ADD530",
"Z. c #AED731",
"A. c #ADD530",
"S. c #AFD930",
"D. c #B0D931",
"F. c #B2DB31",
"G. c #B3DB32",
"H. c #B3DD31",
"J. c #B4DE33",
"K. c #B5DE33",
"L. c #B6DF34",
"P. c #B2DC31",
"I. c #B7E133",
"U. c #757A8B",
"Y. c #A5BECE",
/* pixels */
"$ $ % % * * & $ % % % # @ % $ % * * % + % $ + @ @ % * - % % # % $ # $ $ % & * * % + % # # % % * - - * # % * % $ % @ * & - ; # * ",
"@ & % @ @ % $ $ % - & % & # - % @ % % * % + * t % % % * * @ * * % & % % * # % % $ * $ + = 1 # # # = # # * - $ * % @ @ % # @ @ * ",
"> * # # % % @ % % % % = C 0 U = + % * r F - i.:.1 1 W 1 1 y t * % 1 C r C * $ % = H 0 0 i.:.- t y : t y W % % t t * % $ + @ @ 0 ",
"* @ @ % 0 4.= H & % - - W C i.y * = - C 4.l.l.C 1 C H.l.i.l.W W - 0 U W i.> * * = C 3.S.:.y : U K.j.j.:.] = % t - 0 * $ @ @ + * ",
"@ @ O % % H 9.3.* - W W W U ] W t W ] W W W W W 1 y _ S.S.4.t ] W W U U _ W C U W C W W ] t t U l.S.H.0 Y W t 0 : ^ # & # # # # ",
"# $ % * * 1 _ ] t 0 _ ] C 0 _ _ l.] l.l.W W +.9.j.,.C W 9.] r 3.] ] 0 C U ] 9.9.l.r.+.W 4.4.l._ t C ,.9.t t ] ] ; # : : & & & & ",
"@ $ > 0 :.l._ ] _ W j.N.W W ] _ 9.i.W W ] 3.t r.K.H.l.j.] ] ] ] l.l.W +.] W j.] 3.W 9.t W l.K.B.l.] ] ] 3.] B.l.: : y & * % # # ",
"+ % & > C _ _ l.9.] :.H.N.l.W W W W t +.9.t W ,.:.H.B._ 9.j.] ] l.H.v.9.W W W _ W ] ] 0 W ] i.K.v.W l.r.9.j.l.H.P : 1 * = % @ & ",
"$ $ % * t ] ] l.N.S.9.,.r.l.] l.C W l.l.] 9.+.] W Y W ,.l.l.S.l.9.,.l.] j.] C W v.l.] +.W _ W t ] ] ,.H.S.r.9.r.:.y 9.C % # * * ",
"* * * 0 t l.9.] l.] 9.] W W ] S.H.l.H.H.] ] v.v.v.9.t l.+.] l.9.+.+.W +.9.H.H.l.I.l.` 9.H.l.H.C W j.W ,.l.9.] ] C _ W H * & S & ",
"% * +.] +.l.B.] ] W _ ] 9.t W r.S.H.r.+.W 9.,.l.v.j.] S.l.] W W 4.] W t ] l.D.H.l.W +.+.l.l.B.9.9.H.j.] W W ] ] _ 0 _ C r * % @ ",
"$ % * t ] ,.S.B.l.0 3.9.] 9.] ] ] j.W W ] ] +.,.W W ,.l.S.B.] 0 ] r.] +.] ] :.:.W W ] U ] ] W W ] l.S.B.W t 9.] ] _ ] W = % @ % ",
"* * % C C ] ] ] ] W +.H.H.] B.9.3.C ] l.W r.I.S.] W _ 9.+.] ] C 9.I.B.j.j.] W C l.,.W r.H.l.] W ] ] 4.] W W 9.I.,.l.l.] 0 - = % ",
"- * * = 0 C W 9.i.] W 4.S.l.v.] W 0 l.v.v.H.H.] W W t W +.,.j.] W 9.S.v.l.] t W r.H.S.I.l.+.W Y 3.W ] l.,.9.W l.l.H.] ] 0 = * 0 ",
"# # t ] W ] +.l.I.:.] l.W r.] W W _ C r.l.l.] ,.j.9._ ] +.l.H.,.l.] +.9.] Y W W W l.S.l.] ] l.9.] ] W H.H.] l.W +.] ] t : & + - ",
"* - 1 D.l.l.W ] H.S.S.l.] r.] +.W j.W +.] W ] +.] I.l.9.+.l.S.l.l.r.+.] ,.+.9.] W ] +.W ,.U l.H.S.9.] l.S.l.H.r.] r.] : ] * + * ",
"# * W ] _ 9.W W ,.,.] 3.] H.D.] H.H.] W ] ] 3.t 9.] 9.] W W ] l.4.W ,.H.l.] H.v.9.W ] 9.t H ] 9.9.] W W ] j.W _ j.H.+.] S.* $ $ ",
"@ + t ] ] 9.H.] 9.] W W ] W S.H.D.i.] W 4.] W 9.] ] +.,.H.] i.] t ] ] W S.I.S.9.+.3.] ] W ] ,.] W l.l.+.j.9.C ] +._ I.v.J t * % ",
"- = ] B.l.+.I.l.l.l.,.l.W W _ l.W 3.i.9.+.9.l.l.B.H.l.9.J.v.B.i.l.j.W Y ] l.I W ,.,.W l.l.l.H.H.] r.I.l.D.] v.] W C ] +.t : % * ",
"* * C S.+.W 9.r.S.t l.H.D.j.N.] W t j.B.l.H.l.W S.H.W W 9.l.] W l.H.j.z.l.,.C t v.v.l.J.r.W J.S.W +.9.l.] W B.H.j.l.l.,.t * * - ",
"# # - C W t j.,.+.W W r.H.v.l.W W _ W r.S.S.] ,.] 9.W W j.,.W 4.W l.S.B.l.t W +.] S.H.l.9.] 9.W W 3.l.] +.W +.S.S.H.] C U t * 1 ",
"& & t W l.+.,.l.3.] _ W +.] +.9.9.] i.W ] ,.9.] _ 9.r.W l.9.W ] W W ] ] +.9.9.,.,.W +.] ] ] W l.] +.v.9.3.] 3.W ] ] _ l.W y * # ",
"@ * = ] H.S.l.] ] ] 9.] +.W ] l.S.B.l.W ] ] W +._ l.B.D.9.,.j.] +.W 9.W ] l.l.H.] W 9.+.W 4.+.l.S.v.] ] ,.] +.+._ 4.:.S.N.] # # ",
"@ t _ t W ] H W +.H.l.] 9.W +.] j.] W r.9.t +.r.] W W ] W t ] H.9.9.] W 9.] r.] W j.+.t ] r.W W +.,.3.W l.S.] l.] W ] ] i._ # * ",
"- - y ] ] _ C ] ,.l.9.l.l.H.9.] W t C S.I.r.H.l.+.+.] W t ] l.9.] j.l.H.] +.t W W J.D.S.H.l.+.] ] C W r.j.9.9.r.S.S.] W 0 = $ r ",
"= t t _ I.B.j.B.] ] W t ,.v.S.r.t W W ] l.H.S.+.U l.I.l.            j.S.H.3.t 3.W r.l.H.i.W W l.I.l.B.l.] ] t W r.H.l.C - % + * ",
"# - = C 9.H.D.i.- ] W t 4.:.r.+.] j.9.W ] W W W t W l.  o o o o o o             ] W +.W ] 0 C +.S.S.H.r C +.3.W ] r.9.W I * @ % ",
"@ @ C t 1 C ] i.W t +.9.W t ] ,.S.l.l.:.3.W W +.9.9.W   o o o o o o o o o o o o   9.W W ] 9.,.+.t H ] +.t Y ] ] 0 +.+.] +.- % * ",
"# = 4.S.:.i.] ] ] W l.l.W W ] 9.l.l.W +.] W t r.I.H.l.  X X X X X X o o o o o o   +.] 3.W S.J.H.l.] 9.] +.] B.,.C ] ] ] j.= @ # ",
"+ U _ N.H.] W i.] 9.r.H.B.] _ W W _ C W ] r C         o             X X X X X X   +.] t W ] l.J.v.] 9.,.9.] l.H.l.] _ C t t @ * ",
"@ $ 1 C C _ :.H.S.S.9.r.l.l.] r.t W :.l.9.    o o o o o o o o X X               l.l.9.] W 4.W W ] ] j.v.S.l.] r.l.] i.W 1 : * * ",
"* * 1 _ ; ] ] ] l.r.+.] W W 9.H.H.j.H.H.  o o o o o o o X X X     ] W +.] I.S.l.I.v.] ] B.l.H.t W ,.+.j.,.+.9.+.W 9.j.K.] = - * ",
"# - 3.l.+.l.B.] W 3.+.] 9.t W j.S.H.l.9.  X o o X X X X       W +.9.W r ] ,.H.S.l.+.W ] l.l.D.] 9.H.j.] W 3.+.9.W t ] W C.- % # ",
"@ % * t ] j.H.v.l.t W 9.] _ ] ] ] j.W W 9.  X X         H.v.9.0 ] ] ] +.9.] 9.l._ W ] W ] 9.W W ] B.l.B.W 0 ] ] ] 3.U U - % @ # ",
"* * % W W ] ] 9.] t ] H.B.] l.9.9.W ] l.W ]     ] 3.W r.] ] ] W r.H.l.,.l.] W W l.9.W ] H.l.] W ] ,.] r.W W 9.I.l.l.l.+.t * * * ",
"- * * = t C 9.] ,.9._ 9.H.l.S.] W 0 :.B.B.K.J.] W W t W +.r.,.9.W Z.                      +.+.C 3.3.] ] r.] W S.l.S.9.+.= t * - ",
"# # I ` W ] ] r.I.,.,.9.+.] ] W W +.W i.S.S.] ] 9.] +.] U l.H.] j.  o o o o o o o o o o o   l.9.+.] +.B.v.] l.W 9.,._ t t % @ 1 ",
"* * = B.v.r.9.] H.l.l.l.] ,.r.W W ,.W +.] 3.r.] 9.I.v.9.+.l.H.l.  o o o o o o o o o o o X   l.H.l.9.] l.H.l.H.] ] 9.] t ] * + * ",
"@ * C ] 3.9.Y Y ] ,.9.+.] v.l.            ] W t 9.] ] 9.W W ,.,.  X X X X X X X X X X X   t i.] 9.+.t +.r.l.+.] ,.I.9.] :.* @ # ",
"@ @ y ] +.] S.r.] ,.t W ,.+.  o o o o o o             j.v.+.] ,.t                       H ] ] ] W l.j.] ] ] t 9.+.] H.l.4.: * @ ",
"- = W D.l.9.J.l.l.l.] l.W Y   o o o o o o o o o o o o   I.l.v.l.j.] _ C ] r.W W 9.] ] l.l.r.H.H.] S.I.l.H.,.l.] +.t ] 9.W t % * ",
"& = W H.] W r.l.l.C r.H.S.]   X X X X X X o o o o o o   r.v.9.t j.H.,.j.l.9.t W B.N.9.J.l.] H.S.W ] 9.l.9.W S.H.,.l.l.] t * * - ",
"% % - C W H j.] W W W l.H.v.H.            X X X X X X   l.,.` W ] l.l.H.l.W W _ +.l.H.v.9.] 9.] C W j.] W W ] H.v.H.r.Y y t * - ",
"% & t U l.W l.l.W 9._ W 9.] +.9.] ] ] 9.]             ] i.9.W +.Y.W 9.] ] 9.] ] ] 9.] ,.] ] W r.9._ l.9.W ] W W ] ,.W 9.] U * # ",
"# % - ] S.l.l.] ] ] 9.W +.W 9.l.S.v.l.W ] +.W W W l.v.l.l.] ,.+.U.Y.W W 9.l.H.B.r.W ] ] 3.W +.l.B.v.9.,.] ] 3.+._ _ :.S.j.] % # ",
"@ y ] U W r.3.3.W H.l.] 9.W +.] . o W ] 9.Y W r.9.W ] 9.3.t ,.H.r.U.] W ] o o ] W r.W C 3.l.9.W +.] W W l.H.,.9.] W ] ] j.U % * ",
"- 1 y _ ] +.C W j.l.+.j.r.H.r.] . o o o I.9.J.l.] ] ] W W +.j.,.9.] S.H.9.X o t W H.S.l.H.,.+.] ] W W _ l.9.9.l.S.l._ W 1 = $ F ",
"1 t y U I.v.j.H.] ] W C ] S.S.r.C . o o l.H.H.W W l.I.v.l.S.,.] C W i.l.H.4.X W W 9.H.H.l.+.W v.I.j.v.S.] ] t W l.H.N.U - & + - ",
"# ; 1 y r.H.S.r.- ,.W t +.l.9.. o ,.. o +.+.+.t t 9.l.H.B.4.0 +.H W +.r.r.+.] ] ] 9.] +.X o C _ H.S.H.r t 9.W H ] l.9.W U * @ # ",
"@ # : y - W 9.,.! Y 9.] W t . o o r.l.r.W W +.9.] ] t 3.9.r.t C ] ] t W ] r.S.l.l.] W 3.X o 9.] t 3.r.] r W ] ] 0 +.] r.3.- * # ",
"% * C.f.] l.] :.W W l.l.W W . o o l.W ] ] W C 9.I.v.l.9.] ] +.9.l.l.I W 9.,.H.9.W 9.] W X o o l.l.9.9.] 9.] v.] t +.] ] N.1 # # ",
"$ y _ D.B.9.W :.+.] l.H.l.] +.W 4.] r W l.t t ,.9.I.I.] 9.] ] ] l.H.z.] ` +.] _ t +.] 0 W ,.S.J.v.] r.] ] ] B.H.j.] W W y t % # ",
"@ % 1 y P U :.N.v.l.9.l.l.r.+.9.t W j.l.] +.3.] W W ] ] r.l.v.l.] l.S.] r.+.t W j.r.] 3.+.] W 4.] ] j.v.l.l.] l.l._ l.y 1 t * & ",
"& & 1 _ 1 :.:.] l.9.+.] 3.+.,.H.H.9.H.H.] ,.v.l.v.3.t j.] i.l.9.] +.W 9.9.H.S.r.I.l.] r.l.r.D.t W l.` j.r.9.9.] W ] l.K.:.= > * ",
"% & L f.| N.N.] +.W +.] 9.t W ] J.D.r.9.W ] l.S.v.,.+.v.l.` W _ ] ] W t ] l.H.B.S.] W ] l.l.I.] 9.v.j.+.+.W ] ] W H ] _ 4.- & # ",
"# % & ; :.:.H.N.r.t 9.] ] 4.] ] ] l.+.W ] 9.] ] +.W ] v.H.v.] t 9.] 9.W ] ] 9.9.W W i.W W +.Y ] ,.v.v.B.W t 9._ ] t y : * % @ # ",
"* ; @ = U j.:.] ] r +.S.B.] v.,.W W 9.j.U ] H.l.9.W ] ] ] j.9.C ] I.l.r.l.9.] W r.9.W ] H.l.] 4.9.] ] l.W C :.D.,.] 1 * * @ # * ",
"- # @ - * * y ] ,.] +.r.H.r.H.] C 0 l.v.l.K.I.] W W C W +.] ] ] W S.S.l.l.] t C l.S.l.I.H.] 3.t W W 9.] ] ] C 4.3.4.- % + + * 1 ",
"% # % & % * 1 :.I._ ] 9.W l.9.W W W W l.D.S.9.] ] 9.W W W l.H.] ] ] 9.r._ C W W W l.H.l.] ] r.W W W _ H.B.] : * W W % @ # @ @ ; ",
"# % $ * * * * C H.3.9.l.W ] ] W W ] W ] ] ] ] ] r.H.l.9.] l.l.j.S.9.] ] ] C W _ 3.] W _ ] W S.H.l.W ] l.H._ C & = t - @ # # @ # ",
"@ + @ % % & $ * = * y U W N.i.W j.l.] ] ] ] t - W ] 9.+.C C U y W U ] v.9.W l.l.] U :._ t t +.+.4.] W W U 1 & # & > % % - * # # ",
"@ @ % # $ $ & & # # & 1 _ W 4.S.3.C t 1 W ] - * t = * W _ - t * % C ] t l.i.J t : 1 _ _ * - t = - ] I - y & + # % % - * - # @ @ ",
"& & * * & % S & & & % - = $ * t # * : = t - * * = 0 * * F * - * % = * + * 0 $ = : = t 1 - & = 0 % - - * > % % # @ + % & @ # # * ",
"& $ & S % $ % * & $ % * * # * # @ + = - * - * @ - - @ + & * % + * * * # * % $ % - * * = # # - - @ $ * * % $ * * % % & @ + @ & = "
};
