/* XPM */
static char *_dab04572f9b4dcb93d58c48993d5b28aWEOuurxQo6KYclU[] = {
/* columns rows colors chars-per-pixel */
"64 64 205 2 ",
"   c #4E4117",
".  c #514318",
"X  c #5C4D1D",
"o  c #57481A",
"O  c #5E521D",
"+  c #62521F",
"@  c #645D1D",
"#  c #5E5023",
"$  c #655521",
"%  c #685722",
"&  c #675A20",
"*  c #6B5A24",
"=  c #6B5C2A",
"-  c #665728",
";  c #715E26",
":  c #695B32",
">  c #6D6325",
",  c #726127",
"<  c #746B24",
"1  c #756329",
"2  c #7A662B",
"3  c #7E6A2D",
"4  c #786D27",
"5  c #7A7725",
"6  c #6D6136",
"7  c #736433",
"8  c #7C6A33",
"9  c #7D6E3A",
"0  c #76683E",
"q  c #7D744D",
"w  c #736F51",
"e  c #737E75",
"r  c #757A69",
"t  c #816C2F",
"y  c #836E31",
"u  c #806F39",
"i  c #877032",
"p  c #897334",
"a  c #84723E",
"s  c #8F793A",
"d  c #8B7737",
"f  c #957D3C",
"g  c #85772E",
"h  c #887947",
"j  c #90625D",
"k  c #847D5A",
"l  c #877E55",
"z  c #927F48",
"x  c #AA7959",
"c  c #7E8423",
"v  c #7D8B7C",
"b  c #798375",
"n  c #8EB21E",
"m  c #91B61F",
"M  c #94B91F",
"N  c #8BAF1D",
"B  c #838B24",
"V  c #8A8C2B",
"C  c #858628",
"Z  c #899526",
"A  c #8C922A",
"S  c #899726",
"D  c #929C2D",
"F  c #99843E",
"G  c #8F8830",
"H  c #8DA522",
"J  c #93AE25",
"K  c #92A32A",
"L  c #95AB28",
"P  c #99AC2C",
"I  c #92B521",
"U  c #95BB21",
"Y  c #99BE23",
"T  c #96B128",
"R  c #9BB52A",
"E  c #9EBB29",
"W  c #98B426",
"Q  c #9BA432",
"!  c #A2BD2E",
"~  c #9CC325",
"^  c #9EC329",
"/  c #A0C627",
"(  c #A2CB26",
")  c #A1C62A",
"_  c #A6CE29",
"`  c #A4CB2A",
"'  c #A8CD2C",
"]  c #A6D027",
"[  c #A7D029",
"{  c #A7D02B",
"}  c #A9D229",
"|  c #AAD22D",
" . c #ABD42B",
".. c #AFD92D",
"X. c #B1DB2F",
"o. c #AED630",
"O. c #AFD831",
"+. c #B1DA32",
"@. c #A9CB31",
"#. c #9C8542",
"$. c #9D8844",
"%. c #87805C",
"&. c #958758",
"*. c #86866A",
"=. c #958C64",
"-. c #8A8C75",
";. c #92947A",
":. c #8E937F",
">. c #B68962",
",. c #C49A6C",
"<. c #7E8D85",
"1. c #4486AD",
"2. c #498AAF",
"3. c #5A90A9",
"4. c #4B89B0",
"5. c #4B96BF",
"6. c #4C99BF",
"7. c #4F90B3",
"8. c #5593B5",
"9. c #679DBC",
"0. c #6BA3BE",
"q. c #7EA7BC",
"w. c #4E95C1",
"e. c #4E9CC0",
"r. c #519CC2",
"t. c #5A9DC5",
"y. c #549BD0",
"u. c #5A9FDB",
"i. c #57A2C6",
"p. c #57A3CA",
"a. c #5CA4D5",
"s. c #5CA3DC",
"d. c #5CACDB",
"f. c #5BAAD3",
"g. c #5EB1DB",
"h. c #5EB1D3",
"j. c #6BA5C3",
"k. c #71A3C1",
"l. c #7AA9C5",
"z. c #60A6DE",
"x. c #62ABDE",
"c. c #6AA9DF",
"v. c #60B0D5",
"b. c #63B3DE",
"n. c #6AB4DE",
"m. c #65B9DF",
"M. c #6BB9DF",
"N. c #75B6D9",
"B. c #65ACE1",
"V. c #69AFE1",
"C. c #74AFE1",
"Z. c #66B3E1",
"A. c #6AB4E3",
"S. c #66BAE1",
"D. c #6BBBE3",
"F. c #74B5E2",
"G. c #7CB6E3",
"H. c #72BDE6",
"J. c #7EBDE4",
"K. c #73BEE9",
"L. c #6DC1E4",
"P. c #71C3E7",
"I. c #78C2E5",
"U. c #8F998D",
"Y. c #889386",
"T. c #90998B",
"R. c #8D9D94",
"E. c #909C94",
"W. c #93A29C",
"Q. c #849EA9",
"!. c #8BA5A6",
"~. c #81A8BE",
"^. c #8FAAB3",
"/. c #94AEB1",
"(. c #95B1B4",
"). c #9AB5BC",
"_. c #98A8A1",
"`. c #A1B8BE",
"'. c #DCB98A",
"]. c #89AEC2",
"[. c #85ABC0",
"{. c #8BB3C7",
"}. c #9AB9C8",
"|. c #93BDD8",
" X c #A2BFC9",
".X c #83BCE5",
"XX c #89BEE7",
"oX c #9BC3DC",
"OX c #9CC2D3",
"+X c #A1C6D8",
"@X c #8BC2E6",
"#X c #8CC3E9",
"$X c #87C4E7",
"%X c #93C4E8",
"&X c #9BC6EA",
"*X c #94CBEA",
"=X c #9CCCEB",
"-X c #99C8E6",
";X c #9CD1EB",
":X c #92D0EA",
">X c #A1CDEC",
",X c #A5CEE6",
"<X c #A4D3ED",
"1X c #A6D7E9",
"2X c #F3F4E7",
/* pixels */
"I m U U ~ ~ Y I U U I M m m M U ~ ~ Y n U I n m m U ~ ^ ~ m Y U U m n I M ~ ~ ~ I n U Y M M M ~ ~ ~ ~ M Y U U U U m Y ~ ~ / M Y ",
"m Y U m m U I I m ^ ~ ~ ~ M ~ U m U U Y U n ~ ` U U U ~ U m Y ~ U Y ~ U ~ M m m U ~ I n ~ / M U ~ ~ U m Y ~ U Y U m m U M M m ~ ",
") ~ M M Y U m U ~ M U ~ { ) } ~ m U ~ ' ` / o. .( / } / / ] _ ~ U / _ ' ] ~ I U ~ | ) ` ..} ~ _ } / ( ] ] ~ M _ ` ^ M I n m m ` ",
"~ m m U `  .~ _ ~ m ~ ~ { { ..] ~ / ~ _ { O..._ / { +... ...} _ ~ ` { { ..` ~ ~ / _ } X. .] ( } +.} .. .} ~ Y _ ~ ` ~ I n m m ~ ",
"m I N U U ' ..' Y / ] _ { { } { _ ] } _ ] } } ] ( ]  .O.+.{ ` } _ _ ] } { { ( ] } _ } _ } ` ] ( X.O.+.` _ { _ / ( ( Y Y M U U M ",
"m m U ~ ~ ^ S 8 y 2 2 z 3 , f i * 1 t 3 $ 2 + t d , O 8 y 3 2 f 3 1 f i * 1 t 3 $ 1 $ 3 d , O 8 y 3 1 f 3 , f i * 2 A / ~ Y ~ M ",
"m U ^ `  .K X 3 2 1 2 $.3 + p i * % 1 t + ; + 1 3 + X 3 1 1 2 $.3 + d y * * 1 3 $ ; $ , 3 + # 3 1 1 2 #.3 $ d y * ; i C ~ U m U ",
"n U U ` E $ . , 1 ; 3 $.,.,.3 2 X * 9 2 1 = 7 u a v <.*.u ; 2 f i + 3 2 X * 9 8 ; = 7 9 a v <.*.9 , 2 F u = t 2 X * * < W Y m M ",
"I m M ~ G i $ = d k ].j x x j k w {.[.R.*.!.{.].~.q.3.~.~.r *.].[.].=.k w {.[.W.%.!.{.].~.q.3.q.).r *.].[.].W.l o + 2 t B M Y ~ ",
"~ ~ ~ ` d #.3 = !.}.j.j x x j k.0.7.7.j.{.l.9.0.4.1.1.4.0.{.{.0.7.8.k.k.0.7.7.j.{.l.9.j.4.1.1.4.8.{.{.0.7.8.k.{.Q.u f f 1 T ) ~ ",
"U ~ } R + O 1 *.|.j.e.e.j j r.w.w.w.w.r.t.w.w.r.r.r.6.6.6.r.e.e.i.i.r.w.w.w.w.r.t.w.w.e.w.r.5.5.r.i.r.r.t.i.r.t.N.(.y 2 2 K U m ",
"m U ~ W 1 * , oXN.a.s.h.x j y.a.p.y.a.a.a.f.h.f.y.y.f.a.a.a.a.h.v.x.y.a.p.y.a.a.a.h.h.a.y.y.f.a.a.a.f.v.v.x.y.a.p.oXh i $.D M M ",
"~ ~ ~ T 3 p h -Xb.s.a.u.d.j s.x.D.Z.B.B.u.s.d.z.V.A.d.a.b.s.a.s.d.z.s.x.D.n.B.z.u.a.d.s.V.Z.d.s.b.a.s.s.d.s.d.z.D.*X=.y i L ~ ~ ",
"^ ~ ~ J 1 1 &.%Xm.B.B.u.g.j z.V.A.D.D.Z.d.d.d.S.S.S.d.s.m.B.z.s.g.m.z.B.A.S.H.Z.d.d.d.S.L.S.d.s.m.B.d.u.g.m.z.V.A.*X=.$ 2 W ~ / ",
"M M ( ` O $ /.*Xm.d.s.b.s.j b.Z.D.Z.Z.Z.s.s.Z.A.I.D.A.Z.Z.d.s.d.d.s.b.n.D.Z.A.Z.d.s.B.A.P.H.Z.S.b.d.u.g.s.s.b.A.A.#X<X- $ Z m / ",
"~ ~ / +.5   R.*Xs.z.m.s.s.j V.m.Z.z.d.B.b.m.b.B.j j j j j j j j j j j j j j j j j j j j A.Z.Z.Z.d.V.Z.s.s.s.B.S.A.=X}.7 y K m M ",
"M ~ _ } A * 9 =XD.V.A.d.j g.d.d.g.d.V.s.s.j j j '.'.'.'.'.'.'.'.'.'.'.'.'.'.'.'.'.'.'.'.j j B.A.D.V.Z.B.d.g.g.d.n.=X%.d $.U M M ",
"m m _ ` g y a =XA.m.A.Z.j x.B.s.x.B.s.j j '.'.'.>.>.>.>.>.>.>.>.>.>.>.>.>.>.>.>.>.>.>.>.'.'.j B.Z.S.A.Z.d.B.B.s.B.@X&.t F W Y m ",
"~ ~ } ! $ 1 2 =XF.s.B.j S.S.V.V.z.g.j '.'.>.>.>.>.>.,.,.>.>.>.>.>.>.>.>.>.>.,.,.>.>.>.>.>.'.j d.s.s.B.A.S.S.B.Z.d.J.=.$ 1 Z Y Y ",
"~ ~ { @.$ X $ /.G.d.x.j s.d.D.L.Z.j '.>.>.>.>.>.x x ,.,.x x x x x x x x x x ,.,.x x x x >.'.j d.s.d.g.B.u.d.D.P.Z..X=X$ + B ~ / ",
"M M ~ _ 5 $   r >XM.s.j g.D.K.j j j '.>.>.x x x x x ,.,.x x x x x x x x x x ,.,.x x x x x '.j A.V.S.u.u.g.K.L.A.H.=Xk X * J ~ / ",
"M ~ ( } P t ; 6 oXb.d.V.j j j S.Z.j '.x x x x x x x ,.,.x x x x x x x x x x ,.,.x x x x x '.j 2Xd.g.d.B.Z.B.A.S.F.OXu 2 g ! Y M ",
"U ~ / } @.f i = |.c.g.Z.Z.s.g.d.d.j '.x x x x x x x ,.,.x x x x x x x x x x ,.,.x x x x x '.j Z.s.s.d.Z.S.d.z.d.N.).i f G ' M M ",
"n _ } _ A 8 i p ,X$Xs.s.g.2XB.s.d.2Xj '.'.x x x x x ,.,.x x x x x x x x x x ,.,.x x x x x '.j z.Z.Z.z.s.d.B.B.s.@X}.p y t / M ~ ",
"^ ~ { } g @ % &.1XF.s.x.d.s.z.B.2X2Xj ,.,.'.'.'.x x ,.,.x x x x x x x x x x ,.,.x x x x '.'.j 2X2XZ.z.2Xd.u.B.B.J.<Xw % % D M ` ",
"/ ( _ R 1 p ; ;.*XA.z.z.g.z.K.g.s.2X2Xj ,.,.,.,.'.'.'.'.'.'.'.'.'.'.'.'.'.'.'.'.'.'.'.'.,.j 2X2XK.Z.z.z.g.B.A.b.s.XXk ; #.D M Y ",
"m ~ ~ W ; p i =XF.A.m.b.z.Z.A.Z.s.s.B.2X2X,.,.,.,.,.,.,.,.,.,.,.,.,.,.,.,.,.,.,.,.,.,.,.,.2X2XB.B.A.g.g.d.V.D.Z.s.N.=Xd d C I U ",
"m U _ _ @ 1 h <XD.g.s.u.s.B.g.S.V.d.d.s.s.2X2X2X,.,.,.,.,.,.,.,.,.,.,.,.,.,.,.,.,.,.,.2X2X2Xd.A.D.g.s.u.s.V.b.m.x.G.=X= + B Y Y ",
"U ~  .O.C ; * W.G.s.s.b.g.d.s.d.s.x.z.s.d.D.A.s.2X2X2X2X2X2X2X2X2X2X2X2X2X2X2X2X2X2X2Xs.s.z.d.s.B.z.s.b.B.d.s.d.s.@XT.* 1 K M M ",
"I ] } O.! ; 2 -..Xd.B.d.z.B.B.B.b.g.s.2XB.d.d.Z.B.u.s.d.s.d.B.d.s.B.B.B.B.g.s.z.g.d.z.Z.z.u.d.s.s.z.g.g.s.V.B.z.m.@X&.t 2 Y M Y ",
"m m ~ { R $ 2 ;.-XS.d.d.B.A.z.s.d.d.d.m.2X2Xu.S.V.B.d.d.s.S.d.d.B.A.d.s.d.d.d.S.d.s.u.S.S.2Xd.d.s.S.d.d.x.A.x.s..X X8 ; Z / ~ Y ",
"~ ~ (  .C X o -.>Xz.B.Z.K.S.B.d.d.s.s.z.z.d.A.z.u.s.d.s.B.s.V.S.P.A.B.d.d.s.s.z.s.d.Z.2X2Xs.d.z.B.z.B.A.P.M.z.d.J.(.* y P / ) ~ ",
"M / } ..V y 1 -XJ.u.d.s.d.B.s.Z.L.A.B.B.u.s.s.Z.B.Z.g.d.z.s.d.s.d.B.s.Z.D.Z.Z.B.u.u.d.B.B.V.g.d.B.u.d.s.d.B.s.Z.P.<X9 i D ^ Y I ",
"M M ~ L 2 t z %XD.d.d.u.g.d.B.B.A.S.A.B.s.g.d.B.D.S.z.s.S.g.z.u.d.Z.B.B.A.S.A.B.s.d.d.g.K.S.z.u.S.g.z.u.g.b.B.B.A.=X=.; t I m I ",
"~ / M ! + @ /.:XV.s.s.Z.Z.s.d.B.D.A.D.D.s.s.z.Z.P.A.b.b.Z.s.u.b.g.s.x.B.D.A.D.D.s.s.z.Z.K.A.B.b.B.s.s.b.d.s.d.B.K.$X<X- $ Z ~ ~ ",
") M Y / > o /.*Xd.B.g.s.u.s.Z.S.A.z.z.x.S.b.b.Z.K.A.b.b.x.x.b.s.u.u.Z.S.A.s.B.B.S.b.b.Z.D.A.S.b.d.g.b.s.u.s.Z.S.Z.*X>X6 , K ~ ~ ",
"M M (  .C X 0 =XA.z.A.Z.b.B.d.s.b.B.Z.d.s.z.B.b.A.Z.B.Z.Z.z.B.S.g.z.d.s.g.Z.Z.d.s.z.B.S.D.Z.B.A.A.z.Z.S.d.B.g.s.M.>Xk 3 #.T m ~ ",
"~ / ( X.G i a =XD.D.Z.Z.d.Z.B.s.d.B.s.B.D.D.Z.z.z.B.A.A.D.S.Z.Z.d.S.B.s.B.B.u.B.S.D.Z.z.s.Z.Z.A.D.D.Z.B.d.S.B.s.x.%X&.d #.I m Y ",
"M ~ ] R ; 2 t &XA.d.A.A.g.d.z.Z.B.g.B.s.z.S.Z.d.s.B.u.z.d.z.A.D.S.d.B.B.B.g.B.s.z.S.Z.d.u.B.s.s.d.z.A.D.b.d.B.B.x.$X=.; 4 S M m ",
"m M ( R + + + =XC.s.s.S.s.g.D.L.g.s.S.d.g.d.s.B.D.D.g.d.u.s.z.S.s.d.D.D.g.s.S.d.g.z.s.B.D.K.g.d.s.u.s.S.s.d.D.D.x.G.1X+ + Z ~ m ",
"~ / } +.< X o b -Xm.d.s.d.A.D.K.K.Z.B.z.g.z.x.Z.D.A.A.V.Z.S.z.s.d.A.K.D.K.V.z.z.g.z.z.V.D.A.A.A.B.S.d.u.d.A.D.K.H.#XE.+ $ H Y Y ",
"~ ~ } +.A 2 + w -Xx.z.x.m.A.A.A.B.A.z.z.d.d.B.z.S.D.A.A.z.d.x.B.Z.Z.S.A.V.A.z.z.g.d.Z.z.S.D.A.A.s.d.B.B.S.Z.A.A.A.,Xh ; 3 T ~ / ",
"M M / ] E F t * oXx.g.B.x.s.x.d.B.D.S.B.z.s.d.B.z.x.S.S.s.s.g.b.g.z.B.g.g.S.S.B.z.s.d.B.z.x.S.Z.s.s.d.g.Z.z.B.d.D.).i d p ~ ~ / ",
"M ~ / } R y p 8 oX.XB.d.m.x.n.d.d.B.K.D.A.B.z.d.z.S.z.z.z.Z.z.z.S.g.B.s.z.B.K.H.Z.B.z.d.x.S.z.z.z.Z.B.z.S.d.d.d.XX`.p d V / ~ M ",
"M M / } 5 * 1 s <XF.s.d.B.u.z.Z.A.A.A.A.B.g.B.u.s.g.x.B.P.B.s.d.g.s.B.B.Z.A.A.A.B.g.z.s.s.d.x.Z.L.B.s.d.b.s.d.V..X,Xq ; @ P U M ",
"M ] ] ! 4 t $ ;.;XA.B.B.d.z.A.g.d.d.D.B.d.s.d.z.z.z.S.D.L.A.g.z.d.s.A.g.d.z.D.g.d.z.b.z.z.z.Z.K.P.S.B.d.d.s.A.B.B.-Xw * y Q Y Y ",
"/ / ( R t i i >XK.K.Z.S.S.S.P.B.s.u.B.Z.B.s.d.B.S.d.z.Z.V.H.Z.S.Z.D.P.B.s.u.B.Z.B.z.d.B.Z.g.d.B.A.D.Z.S.Z.S.P.B.s.G.>Xf #.V m ` ",
"/ / ` ) @ t h =XD.b.s.s.u.B.B.S.B.z.d.d.s.A.A.d.z.z.g.V.A.g.z.s.u.B.B.S.B.z.d.d.s.V.Z.d.z.x.d.Z.A.b.s.s.u.B.B.S.B.F.=X1 * c m ~ ",
"M / / _ 5 @ t |.F.z.d.g.g.b.d.s.s.g.z.u.d.D.A.z.z.B.x.d.B.s.d.g.d.S.d.s.s.d.s.s.d.L.A.s.s.V.B.d.Z.u.d.d.g.S.d.s.s.J.}.- - Z m U ",
"M U / _ L 1 ; ;..Xz.z.g.s.V.x.x.b.g.s.z.x.g.x.z.z.z.d.d.s.z.B.g.z.z.B.g.S.Z.s.z.B.g.B.B.B.u.d.d.s.B.B.g.s.B.z.B.b.$X&.3 1 W ~ M ",
"U ~ ....! + y *.XXx.d.d.b.x.z.s.s.d.z.Z.d.s.s.S.s.d.s.s.d.g.d.z.g.B.z.u.s.d.g.B.d.s.u.Z.s.s.d.s.s.g.d.s.B.B.s.s.N.+Xh 1 C ) U Y ",
"I ( { O.C   + -.,Xu.c.Z.K.m.Z.d.d.s.s.z.s.s.z.d.s.s.s.s.z.s.x.A.K.A.b.d.d.s.s.z.s.s.V.d.s.s.s.u.B.s.Z.Z.P.S.Z.d.$X(.$ y L / M M ",
"m U / { V 3 $ ^.#Xd.x.d.b.A.s.V.S.z.B.B.z.z.g.V.z.g.b.z.B.z.g.B.S.B.s.B.S.z.B.B.s.d.d.V.z.B.b.d.B.s.x.b.m.V.s.V.H.OX7 i D ( ~ M ",
"~ Y / T t #.`.XXZ.d.s.s.d.s.B.B.D.Z.B.z.s.d.d.z.D.A.z.u.S.g.u.u.d.s.Z.z.A.A.B.z.s.d.d.d.A.D.s.s.S.g.u.u.d.s.B.B.D.J.>X3 y Z ` ~ ",
"U ~ { ! % ; ).D.A.s.s.B.b.d.d.B.D.S.D.S.s.d.z.Z.K.V.b.d.Z.z.z.g.g.d.z.B.S.S.D.S.s.d.z.Z.P.A.x.d.Z.s.s.b.b.d.z.V.D.H.<X$ * B Y M ",
"m U U / + + (.$XS.d.d.s.u.u.b.D.Z.B.B.B.Z.s.A.A.K.D.A.S.b.d.s.d.s.s.b.D.A.B.B.B.Z.z.A.A.K.D.A.Z.b.d.z.d.u.u.b.S.A..X}.O * Z m M ",
"~ ~ M ~ <   w =XV.s.Z.Z.b.B.x.s.Z.m.n.d.s.d.Z.S.A.n.x.Z.B.s.B.S.g.B.x.s.b.S.Z.d.s.z.m.m.D.x.b.S.B.s.Z.Z.b.z.x.s.D.<Xq 1 F H U ~ ",
"^ M M ~ Z 2 > ).*XH.Z.B.d.Z.x.d.d.s.z.d.B.A.A.V.V.A.x.D.D.A.Z.g.d.Z.x.d.g.s.B.d.x.A.A.V.B.A.V.A.D.D.Z.x.d.g.b.n.-XT.3 d F I ~ ~ ",
"U U M ~ J 1 2 8 oX;X$XS.D.-X@X.XA.c.F..X>X<X<X*XC.V.c.XX;XF.K.A.J.&XXX.XA.B.F..X>X1X<X=XC.c.c.XX;XF.H.Z.n.c.%X>X:.1 1 , H m m ` ",
"U U M ^ ~ T < X # U.=X=X}.Y.U.W.*X%XW.R.e -.b <.}.*X=XU.T.{.%X=XOXY.T.W.-X%XW.U.e v b <.}.=X-XU.U.).%X;X=X<X`.Y.X . $ Z M M m M ",
"m n m ~ U ~ H c @ < O 7 9 $ 1 * 1 : $ * $ > O $ * a : % 1 * 7 2 $ @ 1 * 7 : $ * @ * + + % h : % 1 * 7 8 > : - ; & < H U ^ Y M U ",
"m n M m m I ~ M J S < + * 5 D V >   $ V Z E U H A ; o V S < . * X 5 S B >   $ V S R / W B , X B Z < . $ & X @ B H W ) ~ ^ U m m ",
"Y ~ ~ ~ ~ I ) Y Y ~ M ~ ~ m ~ ( U ~ _ ~ ` / ~ Y ~ ` Y ~ ` ~ / Y U / ~ m ~ ` I ~ / ~ / ) ~ Y ^ ` Y ) ` Y ^ ~ M M M n Y U m M U Y ",
"~ I ~ ^ U I Y Y ~ n ~ ~ ~ M ~ M m m ~ ~ ~ ~ ~ m ^ ) m m ~ ~ R M Y ~ ~ M ~ U n U / ~ ~ / Y m ^ ~ I I Y ~ U m ~ ~ M ~ U m n m ~ ~ "
};
