/* XPM */
static char *_8e67eee4b6d4b1d872dc74c5aa04babhwnaXaYQHPaCapXO[] = {
/* columns rows colors chars-per-pixel */
"64 64 159 2 ",
"   c #8BAF1D",
".  c #8EB21E",
"X  c #91B61F",
"o  c #94B91F",
"O  c #92B620",
"+  c #96BB21",
"@  c #99BE23",
"#  c #9CC325",
"$  c #9FC824",
"%  c #9EC329",
"&  c #A0C627",
"*  c #A3CB26",
"=  c #A0C52A",
"-  c #A1C729",
";  c #A1C729",
":  c #A0C928",
">  c #A1C928",
",  c #A1C829",
"<  c #A2C928",
"1  c #A2C929",
"2  c #A2CA28",
"3  c #A2CA29",
"4  c #A3CA29",
"5  c #A2C82A",
"6  c #A2C92A",
"7  c #A3C92A",
"8  c #A3C92B",
"9  c #A4CB2A",
"0  c #A4CB2B",
"q  c #A3CC28",
"w  c #A4CC28",
"e  c #A4CD28",
"r  c #A4CC29",
"t  c #A5CC29",
"y  c #A4CD29",
"u  c #A5CD29",
"i  c #A5CE28",
"p  c #A4CE29",
"a  c #A5CE29",
"s  c #A5CF29",
"d  c #A6CE28",
"f  c #A6CF28",
"g  c #A6CE29",
"h  c #A6CF29",
"j  c #A7CF29",
"k  c #A4CC2A",
"l  c #A4CD2A",
"z  c #A5CD2A",
"x  c #A5CC2B",
"c  c #A5CE2A",
"v  c #A5CF2A",
"b  c #A6CF2A",
"n  c #A7CF2A",
"m  c #A6CE2B",
"M  c #A7CE2B",
"N  c #A6CF2B",
"B  c #A7CF2B",
"V  c #A3C82C",
"C  c #A4C92C",
"Z  c #A4CA2C",
"A  c #A5CC2C",
"S  c #A7CE2E",
"D  c #A7CF2E",
"F  c #A5CD29",
"G  c #A8CE2C",
"H  c #A8CF2B",
"J  c #A6D027",
"K  c #A7D127",
"L  c #A6D028",
"P  c #A7D028",
"I  c #A6D029",
"U  c #A7D029",
"Y  c #A7D129",
"T  c #A7D02A",
"R  c #A7D02B",
"E  c #A7D029",
"W  c #A8D028",
"Q  c #A8D128",
"!  c #A8D029",
"~  c #A8D129",
"^  c #A9D129",
"/  c #A8D228",
"(  c #A9D228",
")  c #A9D328",
"_  c #A8D229",
"`  c #A9D229",
"'  c #A9D329",
"]  c #AAD329",
"[  c #A8D12A",
"{  c #A8D22A",
"}  c #A9D22A",
"|  c #A9D32A",
" . c #A9D22B",
".. c #A9D32B",
"X. c #AAD32A",
"o. c #AAD32B",
"O. c #AAD429",
"+. c #AAD42A",
"@. c #ABD42A",
"#. c #ABD52A",
"$. c #AAD42B",
"%. c #ABD42B",
"&. c #ABD52B",
"*. c #ACD42B",
"=. c #ACD52B",
"-. c #ACD62A",
";. c #ACD62B",
":. c #ADD62B",
">. c #ADD72B",
",. c #A8D02C",
"<. c #AAD12D",
"1. c #A9D22C",
"2. c #AAD32C",
"3. c #AAD32D",
"4. c #ABD32D",
"5. c #ABD32E",
"6. c #ABD52C",
"7. c #ABD42D",
"8. c #ADD52D",
"9. c #ACD62C",
"0. c #ACD72C",
"q. c #ADD72C",
"w. c #AED72D",
"e. c #ACD62E",
"r. c #ADD62E",
"t. c #ADD72E",
"y. c #ADD62F",
"u. c #ADD72F",
"i. c #AED72E",
"p. c #AED62F",
"a. c #AAD42A",
"s. c #ADD82C",
"d. c #AED82C",
"f. c #AED82D",
"g. c #AFD82D",
"h. c #AFD92D",
"j. c #AED82E",
"k. c #AFD82E",
"l. c #AFD92E",
"z. c #AED82D",
"x. c #B0DA2D",
"c. c #B0DA2E",
"v. c #B0DA2F",
"b. c #B2DB2F",
"n. c #B2DC2F",
"m. c #B1DA2E",
"M. c #ADD530",
"N. c #AED731",
"B. c #ADD530",
"V. c #AFD930",
"C. c #B0D931",
"Z. c #B2DB31",
"A. c #B3DB32",
"S. c #B3DD31",
"D. c #B4DE33",
"F. c #B5DE33",
"G. c #B6DF34",
"H. c #B2DC31",
"J. c #B7E133",
/* pixels */
"O O + + # # @ O + + + o X + O + # # + O + O . X X + # % + O # + X o O O + + # # O . + o o @ @ # # % # o + # + + + X @ # % & o o ",
"X @ + X X + O O + % @ + @ o % + X + + @ + . # q + + + # # X + % + # + + # + + + + # X . # : o o + $ + X # % O @ + X X + o X X & ",
"= # o o + + X + + + + $ M 7 K $ . + # l C & M.*.: : Y : q w q # + q M l M # O + $ S 7 7 r.*.$ w w * : w L + + L q # + O . X X 7 ",
"# X X + 7 <.$ S @ + % % Y M r.w # $ % M <.r.g.M : M S.g.) g...Y # % Y Y r.= # # : M Y V.*.w : W S.*.x.*.Y $ + q % 7 # O X X X # ",
"X X   + + S 5.,.# % Y Y Y K ) Y q Y ) Y Y Y Y Y : w ^ V.V.<.7 ) Y Y K Y ^ Y M K Y Y Y Y ) q q M g.V.S.7 L Y q 7 * W @ o o @ o o ",
"o O + # # : ^ ) q 7 ^ ) M 7 ^ ^ g.) g.g.Y Y ..5.*.-.M Y ) 5.q Y ) ) 7 M ^ ) 5.5.g.5...Y ^ 5.g.) M Y -.-.q q ) ) & o * * @ @ @ @ ",
"X O = 7 *.g.^ ) ^ Y d.x.Y Y ) ^ 5.r.Y Y ) ,.q 0.J.S.g.d.) ) ) ) V.g.Y Y ..Y d.) ,.Y 5.q Y V.J.C.g.) 5.) ,.) n.g.* : w @ # o X o ",
". + @ = M ^ ^ g.5.) *.S.x.g.Y Y Y Y q ..5.q Y -.*.S.n.^ 5.d.) 5.g.S.n.) Y Y Y ^ Y ) ) 7 Y ) g.S.g.Y 5.-.5.d.g.S.K * : $ % @ . @ ",
"O O + # q ) ) g.x.V.5.-.0.g.) g.q Y g.g.) 5...) Y L Y -.g.V.V.V.) ) V.0.5.) Y Y g.g.) ..) ^ Y q ) ) ) n.V.0.5.0.*.W 5.M + + # # ",
"# # # 7 q g.5.) g.) 5.) Y Y ) V.J.g.S.S.) ) l.l.l.5.q g...) g.) ) 5.Y Y g.S.S.g.J.V./ 5.S.g.S.M Y g.) d.d.5.) ) M W K S # + = # ",
"+ # ..) ..g.n.) ) Y ^ ) 5.q Y 0.V.S.5.) Y 5.-.g.l.d.) V.g.) Y Y ) ) Y M ^ g.C.x.0.5.Y ) g.g.l.5.5.S.d.) Y Y 5.) Y 7 ^ M V # + O ",
"O + # q ) -.V.n.g.7 ,.5.) 5.) ) ) d.) Y ) ) ..-.Y Y -.g.l.n.5.7 5.5.) Y ) ) *.r.Y ^ ) Y ) ) Y ^ ) g.V.n.Y q ) ) ^ ^ ) ^ : + X + ",
"# # + M M ) ) ) ) Y ..S.S.) n.5.,.M ) g.Y 0.S.n.) Y <.) ) ) 5.Y ) J.n.d.d.) Y Y g.-.Y 0.S.g.) Y ) 5.^ ) ) Y 5.J.d.g.g.) : & # o ",
"% # # $ 7 M Y 5.r.) Y <.V.g.l.) Y 0 0.C.n.S.S.) Y Y q Y ^ -.-.) ..5.V.l.g.) q Y g.n.V.J.g...Y L ,.Y ) d.5.) Y V.g.S.) ) : : % * ",
"o o q ) Y ) ..g.J.*.) g.Y 0.) Y ,.) Y g.g.5.) ) d.g.<.) K g.J.-.g.) ..5.) Y ,.Y Y g.V.0.) ) g.5.) ) Y S.S.) d...Y ) ) w * @ X & ",
"# % : C.g.g.Y ) S.V.V.g.) 0.) ..) ) Y 5.) Y ) ..5.S.g.5...d.V.l.g.0...) -.Y ) 5.Y ) ..Y -.K g.S.V.5.) g.S.g.l.g.) 5.) w ) @ X @ ",
"o # Y ) ^ 5.Y Y -.-.) ,.) S.C.) S.S.) Y ) ) ,.q ) ) 5.) Y Y -.-.^ Y d.n.g.) S.l.) Y ) ..q q 5.<.5.) Y Y ) *.^ ..d.n...5.0.% + O ",
"X . q ) ) 5.S.) 5.) Y Y ) Y V.S.C.r.) Y <.) Y 5.*.) ..0.C.) ) -.M ^ ) Y S.S.V.5...Y ..5.Y ) -.) Y g.g...d.^ M ) ..) J.l.3.$ # X ",
"% $ ) n.g...J.g.g.g.-.g.Y Y ^ g.Y ,.r.5...5.g.g.n.S.g.5.D.n.g.5.-.g.Y Y ) g.L Y 0.5.) g.V.g.S.S.5.V.S.l.C.r.g.) Y M ) ..q q # o ",
"# # M V...Y 5.0.V.q g.S.C.d.x.) Y q d.n.g.S.g.Y V.S.Y Y r.g.5.Y g.S.g.l.l.) M q l.n.g.S.-...D.V.Y ) 0.g.) Y n.S.g.g.g.-.7 # # $ ",
"o o % M Y q d.-...Y Y 0.S.l.g.Y Y ^ Y 0.V.V.) -.) 5.Y Y g.) Y ^ Y g.V.V.g.q Y ..) V.S.g.) 5.) ..q Y d.) ..Y ..V.V.S.) M Y q # % ",
"@ @ q Y g...-.g.,.) ^ Y ..) ..5.5.) r.Y ) -.5.) Y 5.0.Y g.r.Y ) Y Y ) ) ..5.5.-.) ) 5.) 5.) Y g.5.) l.5.Y ) Y Y ) ) ^ g.Y Y # o ",
"X # $ ) S.V.g.) ) ) 5.) ..Y ) g.V.n.g.Y ) ) Y ..^ g.l.g.r.) -.) ....5.Y ) g.V.S.) Y ) ..,.Y ) g.l.g.5.) 5.) Y <.5.Y g.M.x.) o o ",
"X q ^ q Y ) S Y ..S.g.) 5.Y ..) d.) Y 0.5.q ..0.) Y ..5.Y M 5.S.) 5.) ..5.) -.) Y g...q ) 0.<.Y ) 0.Y Y g.S.) g.^ Y ) ) *.Y + # ",
"% % w ) ) ^ M ) -.g.5.g.g.S.5.) Y q M V.D.g.S.g...) ) ^ Y ) d.g.) g.l.S.) ) l Y M S.V.l.S.g...) ^ Y <.) g.5.5.0.V.l.) Y % % X 7 ",
"$ q q ^ J.n.d.n.) ) Y q -.l.V.0.q Y Y ) g.S.l...Y 0.J.V.l.l.) ) q M 5.g.S.,.q ,.Y 0.g.S.g.Y Y g.J.d.n.C...) q Y 0.S.g.M $ # . # ",
"o % $ M 5.S.C.r.% ) Y q <.*.0...) d.5.Y ) Y Y Y q ..g.D.n.<.q ) Y ,.) d.5.Y ..-.) ..Y Y ) q S Y V.V.S.q q ) ,.Y ) g...J K @ X + ",
"X X M q : M ) r.Y q ..5.Y q ) -.V.g.g.*.,.Y Y 5.5.5.q l 5.0.q q ) ) l S -.0.V.g.g.5.Y ,.....0...M ,.) 5.q Y ) ) q ,...5...# # @ ",
"o $ <.V.*.r.) ) ) Y g.g.Y Y ) 5.g.g.Y ..) Y q 0.J.S.g.r.) ) ....l.d.K ..) ) l.g.,.) 5.Y Y g.J.V.g.) ) 5...) n.-.M ) ) ) g.q o + ",
". K ^ x.S.) Y r.) 5.0.S.n.) ^ Y Y ^ M Y ) 0 Y -.5.D.S.) ) d.5.) g.S.l.5...Y Y Y q ) ) q ,.) V.J.g.Y ) -.5.) g.S.g.5.^ M q $ X + ",
"X O : M M ^ *.S.V.V.5.0.g.g.) 0.q Y *.g.5.) ..) Y Y Y ) r.n.C.g.) 0.g.) 5.5.q Y g.g.) Y ..Y Y Y ) ) g.V.l.g...0.g...0.Y : q # # ",
"# # : ^ & ) ) ) g.0...) Y Y 5.S.S.d.S.S.) ) V.l.l.5.q *.) ) g.5.5.) Y ..-.S.n.g.D.S.) 0.l.g.S.q Y -...d.0.) ....Y ..-.J.*.$ % # ",
"@ % Y d...l.l.) ..,.) ) 5.q Y g.V.S.5.5.Y ) -.l.l.g.) S.g.^ Y ,.....^ l ) 0.S.V.0.) Y 5.g.g.x.) 5.S.-.Y Y ,.Y ) ^ l ) Y M.% + o ",
"o o # q ) g.S.n.5.q ,.5.) Y Y ) ) d.) Y ) ) ..-.Y Y ) g.S.n.) q ..-.) Y 5.) ) g...,.) Y 5.) Y Y -.n.g.n.Y q ) 5.) ,.Y K % + X + ",
"# # # q Y ) ) 5.-.q ) S.n.) g.-.) Y ) g.Y ) S.l.5.Y ..0.^ 5.) Y ) J.0.-.g.5.^ Y -.) Y 5.S.l.) Y ) ) ) 0.^ Y 0.J.g.g.0...q # # + ",
"% o # % q Y ,.) ) -.^ 5.S.g.V.) ,.q g.n.C.J.S...Y Y q Y ) ) -.5...0.V.V.g.) 7 M g.S.l.J.l.....M ,.Y 5.) 5.) Y V.g.V.5.) : * % 7 ",
"o o q ) Y ....g.J.-.-.5...) 5.Y ,...Y r.V.V.-.5.5.r.^ ) Y g.S.) -.....0.) Y Y Y Y V.V.g.) ) d.5.) 5...l.n.) 0.Y 5.g.Y M q o X : ",
"# $ : n.g.0...) S.V.g.g.) -.-.Y Y -.Y ..) Y ) ) ) S.g.r...g.S.V.l.g.) ) ) ..) 5.,.) ..Y -./ l.S.g.) ) g.S.g.S.) ) ) ) q ) # X @ ",
"X # w ) <.5.L L ) -.5...) l.g...n.S.) Y 5.) Y q 5.5.5.) Y Y -.g.5...-.n.g.) S.n.) ,.5.) Y q 5.) 5.) M ..0.g.....-.S.5.) *.# o o ",
"X X K ) ) ) V.0.) -.q K -...g.J.S.M.) Y Y ) M Y -.) Y g.V.) ) ) q ..) 5.S.S.C.5.Y Y ) ) M <.) ) ..g.d.Y ) ) q 5.) 5.S.g.5.* @ X ",
"# & ^ C.g.<.D.g.g.g.) g.Y L ..-.M Y ) ) ) 5.g.g.n.S.*.5.J.l.g.0.-.) ^ Y ) g.Y Y 5.) ) g.g.g.S.S.) V.J.d.n.-.g.) ..q ) 5.Y q + # ",
"# # Y S.) Y 0.g.g.M 0.S.l.5.g.-.Y 7 g.S.g.S.g...C.S.^ ^ 0.l.5.L d.S.) d.0.-.q Y x.x.0.D.r...S.V.Y ) 5.g.5.Y l.S.-.g.g.) q # # % ",
"+ + % M ,.q g.) Y Y Y g.S.l.S.K M ..Y g.J.V.) ) ) <.Y Y d.) ) Y ) g.S.S.g.L Y ..) V.S.V.) ) ) 5.M Y d.) Y Y ) S.l.S.-.M q q # % ",
"+ @ q K g...g.g.Y <.^ Y ..) ..5.) ) ) ....-.) 5.Y 5.r.^ g.5.Y ..<.Y <.) ..5.) -.5.) ) 5.) 5.Y g.5.^ g.5.,.) Y ..) -.Y 0.) K # o ",
"X + $ ) V.g.g.) ) r.^ Y Y Y 5.g.g.l.g.Y ..O...Y Y g.l.g.5.) 0.) Y ..Y ^ 5.g.g.l.-.Y ) ) ,...) V.n.l.) d.) ) 5...Y <.) V.d.) + o ",
"X M ^ w ..-.,.,.Y S.g.) 5.Y ..) g.d.Y 5...q Y -.5.Y ) 5.^ Y 5.S.-.5.) Y ) ) g.) Y g...q ,.0.) Y ) 5.M Y g.S.) 5.) ^ ) ) d.K + # ",
"% $ M Y ) Y L Y g.0.5.0.g.S.5.) Y q Y 0.J.-.S.g.Y ) ..Y Y ) g.0...0.g.n.5.) M M Y S.V.g.S.0...) ) Y Y ..g.5.5.g.V.x.K ^ q : O C ",
"7 q q ^ J.S.-.S.) ) Y Y ) V.S.5.q Y Y 5.0.S.V...Y g.J.g.g.S.) -.Y q r.V.S.<.q ,.Y 5.g.J.g...Y g.J.d.l.g.) ) q Y r.S.g.K % o X % ",
"X $ 7 M 5.S.V.N.% ) Y q ) g.0.,...) 5.......Y Y 7 5.g.S.n.5.7 ) ,.Y ..-.0...) -.5.) 5.Y 5.q S ^ V.V.S.q q 5.Y S ) g.5.Y Y @ X o ",
"X + : q 7 Y ) 0.R L 5.) ,.q 0.) g.0.l.-...Y ..<.) ) q ,.5.-.q q ) ) q Y ) 0.g.g.g.) Y Y ..<.) ^ Y ,.) 5.q ,.) ) 7 ..) 0.,.% # @ ",
"+ # r.r.) 0.) *.Y Y g.g.Y Y ) 5.g.V.Y ) ) Y M 0.J.l.0.5.) ) ..Y g.g.K Y 5.-.n.5...) ) Y M g.J.x.0.-.5.-.) ) l.) q ..) ) x.: o o ",
"X w ^ N.n.5.^ *...) g.S.g.) ....) ^ q Y -.q q -.5.J.J.) ..5.) -.g.S.s...Y ..) Y q Y ) 7 ..) V.D.l...5.) 5.) n.S.d.) Y Y w q o o ",
"X + : w ^ K r.x.l.g.5.0.g.g...5.q ,.5.g.-...Y ..Y Y ^ ) 5.l.l.g.5.-.l.) 5...q ..g.0.) Y ..) Y ^ ) ) d.g.g.g.) g.C.^ r.Y : q # o ",
"@ @ : ^ : *.) ) g.5.) 5.Y Y -.S.S.) J.S...) l.g.l.,.q -.) d.g.5.......) 5.S.l.-.J.V.^ r.V.0.C.q Y g.^ d.0.5.5.) ^ ) g.S.*.* = $ ",
"@ # M x.^ x.x.*.......) 5.q Y ) S.S.g.) Y ..g.l.n.0.) S.g.) ) <.) ) ,.q ..g.S.V.V.) Y ) g.g.J.) ) l.0.....Y ) ) Y q ) ^ <.# @ o ",
"X + + % ) d.C.x.5.q ..) ) <.) ) 5.g.Y Y ) ....) Y Y ) l.V.l.) q 5.) 5.Y ^ ) 0.g.Y Y 5.) ,.) L ) -.S.l.n.Y q 5.^ ) M M & # + X o ",
"# & X # K d.) *.-.q ..n.l.) g.-.Y Y ) ) Y ) n.g.) Y 5.) ) g.) M ) J.g.-.g.-...Y 0.5.Y ) S.g.5.Y ) 5.) g.Y M *.x.5.) q # @ X o @ ",
"% + X $ % # M ) -.) ..5.J.0.V.) M 7 g.S.g.J.J.) ,.Y Y Y <.) ) *.Y V.V.g.g.) q q g.l.g.J.S.) Y q Y ,.) ) ) *.q S ,.<.% o . X # : ",
"+ o + @ o # : ) S.) 5.) Y g.5.Y Y ,.Y g.C.g.) ) 5...Y Y Y g.n.) ) ) 5.0.^ M ,.Y Y V.S.g.) ) 5...Y ^ ^ S.x.) w $ Y Y + X o X o : ",
"+ + X # # # # M S.,.r.g.) ) ) Y Y ) Y ) ) 5.5...-.S.g.) ..g.C.*.V.5...) ) M Y ) ,.) Y <.) Y g.S.g.Y ) V.S.^ 7 # $ q % X o o X o ",
"X . X + + + O # % # w ) Y x.g.Y r.g.) ) ) ..7 7 Y ) 5...M w ^ q Y Y ) n.5.Y g.g.) K ) ^ q q ) ) 5.) M Y K : @ o @ % + + % # o o ",
"X . + o O + @ @ o o + : ) M <.V.,.M q : M ) # # q $ # Y K % w $ + q ) L r.g.D q q : ) ^ # % L $ % ) q $ w @ . o X + V # % o X X ",
"@ @ # # @ + 0 + # # + % $ O # q + # q # q $ # # $ 7 # # C # % @ + $ # X % q O $ $ $ q q # # % 7 # % 7 # = + + o X X @ + X o o # ",
"% O @ V + O + @ # . + # # o # o X . $ # # % # X % % X . @ % @ O @ # + + # + . + % # # % + X % % . O + # + O # # + + + X . X # # "
};
