/* XPM */
static char *dc5d5cf9fc534548ffa8ffec5d1a329bAT5Y8oTZ2mSlzypU[] = {
/* columns rows colors chars-per-pixel */
"64 64 203 2 ",
"   c #3E3E2F",
".  c #393A37",
"X  c #443B35",
"o  c #4A3D36",
"O  c #403C3B",
"+  c #533E3A",
"@  c #39443D",
"#  c #3E4B3C",
"$  c #3B4739",
"%  c #5C7F0C",
"&  c #536E1D",
"*  c #54671C",
"=  c #5C7D15",
"-  c #56741E",
";  c #5A761C",
":  c #5B7B1B",
">  c #60771C",
",  c #677F1C",
"<  c #43432E",
"1  c #474C2A",
"2  c #514D2D",
"3  c #4C5923",
"4  c #4B5D2D",
"5  c #485329",
"6  c #555A2C",
"7  c #4B4534",
"8  c #4A433B",
"9  c #424E3A",
"0  c #404735",
"q  c #5A4C36",
"w  c #524339",
"e  c #5C4A39",
"r  c #544537",
"t  c #445534",
"y  c #495634",
"u  c #475A35",
"i  c #4A5D34",
"p  c #43543C",
"a  c #47593B",
"s  c #495C3B",
"d  c #51543B",
"f  c #5E5138",
"g  c #614F38",
"h  c #6B5537",
"j  c #685539",
"k  c #705E38",
"l  c #4E652C",
"z  c #4F692C",
"x  c #4C6526",
"c  c #546C25",
"v  c #5B6E22",
"b  c #53642A",
"n  c #536C2C",
"m  c #556627",
"M  c #567324",
"N  c #597522",
"B  c #5B7A21",
"V  c #55712A",
"C  c #59722B",
"Z  c #5F792E",
"A  c #4D6434",
"S  c #4D623B",
"D  c #526535",
"F  c #526B32",
"G  c #596D34",
"H  c #526739",
"J  c #567132",
"K  c #627E24",
"L  c #60762F",
"P  c #647D2D",
"I  c #617522",
"U  c #74673B",
"Y  c #7C6A3C",
"T  c #637833",
"R  c #7F713D",
"E  c #384340",
"W  c #455740",
"Q  c #6D5C43",
"!  c #7E7A4C",
"~  c #836E39",
"^  c #83723B",
"/  c #8B7A3E",
"(  c #816A40",
")  c #867544",
"_  c #887941",
"`  c #5E810E",
"'  c #5F8112",
"]  c #658C04",
"[  c #688F06",
"{  c #61850C",
"}  c #658A0B",
"|  c #698E0A",
" . c #6C9404",
".. c #6F9802",
"X. c #6B920B",
"o. c #739B04",
"O. c #71970A",
"+. c #759C0A",
"@. c #789F0C",
"#. c #628313",
"$. c #6A8515",
"%. c #668912",
"&. c #6D8B16",
"*. c #638519",
"=. c #6B851B",
"-. c #6E8A1A",
";. c #718E17",
":. c #728E19",
">. c #6E9213",
",. c #6E9019",
"<. c #739416",
"1. c #759A13",
"2. c #759319",
"3. c #79971B",
"4. c #7C9B1B",
"5. c #789D11",
"6. c #77A104",
"7. c #7AA406",
"8. c #77A008",
"9. c #7CA40B",
"0. c #7FA80B",
"q. c #7DA412",
"w. c #7FA11A",
"e. c #6C8524",
"r. c #6B8B22",
"t. c #69832D",
"y. c #67842D",
"u. c #728D29",
"i. c #779426",
"p. c #7D9D21",
"a. c #75922A",
"s. c #7A962D",
"d. c #7D9B2B",
"f. c #6A823A",
"g. c #739032",
"h. c #799435",
"j. c #809E1F",
"k. c #82AB0D",
"l. c #87B00F",
"z. c #81A713",
"x. c #85AC12",
"c. c #88AF14",
"v. c #82A41C",
"b. c #86A91C",
"n. c #8AAD1D",
"m. c #87B010",
"M. c #8AB215",
"N. c #8EB31C",
"B. c #91B61E",
"V. c #93B91E",
"C. c #99BF1F",
"Z. c #84A421",
"A. c #87A922",
"S. c #8AAD21",
"D. c #8EB221",
"F. c #92B622",
"G. c #96BB21",
"H. c #98BD22",
"J. c #98BE23",
"K. c #99BF21",
"L. c #98BD24",
"P. c #99BE25",
"I. c #9ABF24",
"U. c #9BBF26",
"Y. c #99BE23",
"T. c #93B62B",
"R. c #8AAB32",
"E. c #84A231",
"W. c #96B73A",
"Q. c #9AC01F",
"!. c #9BC025",
"~. c #9BC126",
"^. c #9BC225",
"/. c #9CC226",
"(. c #9BC125",
"). c #9EC329",
"_. c #9DC229",
"`. c #9FC429",
"'. c #9EC429",
"]. c #A1C727",
"[. c #A0C72A",
"{. c #A0C62A",
"}. c #A4CB2D",
"|. c #A2C827",
" X c #A8D02C",
".X c #A6CD30",
"XX c #A7CD31",
"oX c #A8CF32",
"OX c #ACD336",
"+X c #ABD235",
"@X c #AFD638",
"#X c #AFD539",
"$X c #AFD835",
"%X c #B0D737",
"&X c #B0D73A",
"*X c #B2D93C",
"=X c #988747",
"-X c #988D47",
";X c #9E924C",
":X c #A0964F",
">X c #A8994F",
",X c #AA9C51",
"<X c #AEA154",
/* pixels */
"/.).G.G.).G.B.G.L.L.B.I.).I.H.H.V.N.F./.I.).I.B.H.~.B.B.G.G.F.N.~./.G.~.V.B.N.G.^.!.^.F.N.^.!.N.V.V.!.N.V./.~.G.~.V.N.N.H.~.G.L.",
"~.H.V.G.B.F.B.G.G.B.B.F.I.I.I.G.B.G.V.G.I.I.G.V.V.F.B.N.!.V.V.B.V.~.I.G.V.B.G.V.!.^.^.!.Q.B.V.N.B.!.B.N.B.V.I.I.G.N.B.V.V.L.G.V.",
"G.V.F.V.G.I.G.L.G.B.V.B.B.V.V.F.I.V.H.V.F.V.V.F.B.G.I.F.G.V.B.V.N.B.V.V.F.D.2.1.1.a.r.y.a.F.D.^.V.V.B.V.B.B.V.F.V.G.G.V.V.B.V.V.",
"B.B.B.B.B.L.H.G.B.G.H.V.V.B.B.V.G.H.H.B.B.B.B.B.V.V.!.H.F.V.G.G.V.G.N.q.8.q.5.N.0.q.1.| ' V J g.D.Q.V.^.G.B.V.B.V.F.~.!.V.V.F.V.",
"F.V.I.G.B.N.B.N.B.V.~.G.L.F.G.V.B.B.N.G.I.B.G.I.V.B.N.B.N.B.H.L.F.w.>.0.B.^. X@X.XQ.Q.0.6.` V S S y.Z.T.Q.G.G.G.F.V.B.B.N.~.G.N.",
"I.{.I.V.V./.G.V.!.V.V.F.V.L.~.G.F.N.B.F.).U./.G.B.G./.F.G.H.B.+.X.' q.V.~.'.#X&X+X.X^.0.0.o.' { - # t Z S.V.G./.H.G.n.B.B.~.).I.",
"G.V.B.n.B.I.)./.G.N.V.N.N.V.!.G.B.V.B.B.F.G.G.N.N.G.).I./.x.O.M.9...9.`.^.^.@X&X+X+X[.!.M.o.} 8.6.: u N N y.V.G.~.B.V.V.B.F.G.I.",
"B.B.V.B.V.B.F.G.F.N.N.V.F.B.F.V.G.G.G.G.V.B.B.F.B.B.N.L.z.z.{.F.+.o.N.OXG.M.V.}.#X.X'.!.Q.9.o.!.M.o.- n : N a.V.V.V.H.V.H.B.B.B.",
"V.B.B.)./.G.G.V.G.B.B.V.V.N.V.V.V.~.V.F.V.V.B.G.'.!.!.F.+.oX+Xm.0.m..X&X}.+.q.'.'.^.^.Q.0.9.0.0.N.k.] l n M H b.C.V.I.G.G.V.G.B.",
"B.n.G.G.)./.G.V.F.V.V.!./.H.V.B.V.F.V.N.G.N.N.V.!.'.'.q.8.}.!.0.0.N.$X*XoXQ..X+X'.Q.D.0.0.0.^.0.k.6.' ' ' { c n S.B.V.B.N.B.G.N.",
"F.B.V.B.B.V.V.V.!.G.I.F.I.I.G.G.B.N.F.G.V.B.B.V.N.B.F.' %.N.0.m.Q.'.!.+X+X}.}.+X^.Q.Q.M.'.}.}.0.o.{ { ` N { ] t G H.N.B.G.G.V.B.",
"V.G.H.I.G.n.V.V.V.!.G.V.B.B.V.G./.G.!.`.V.V.I.G.^.F.p.' [ 0.'.q.F.$XN.N.Q.B.'..XQ.0.N.0.@.Q.M.0.o.X. .` = ' { V W d./.G.{.H.B.V.",
"B.V.H.I.H.B.I.H.G.B.B.B.V.V.N.V.G.`.I.G.N.B.V.^.^.!.>. .0.'.$X9.!.*X.X0.N.'.+X.X'.!.M.0.6.0.Q.0.N.k.o. .] { M M p p T./.L.B.B.F.",
"V.B.G.V.B.V.G.~.H.V.N.V.F.V.B.V.V.G.V.B.V.V.B.G.N.B.+.0.M..X#X^.m..X+XM.^.#X+X*X#XoX}.0.7.q.}.'.z.o.X.` o.6.%.z u n A.Q.B.B.V.B.",
"V.I.U.V.B.B.V.V.V.V.B.F.).G.G.H.B.N.N.^.V.F.^.~.V.q...8.!.#X#X}.m.!.+X^.8.F.+X*X#X+X'.0.X.O.0.q. . .: } 7.7...= M = G A.H.G.B.V.",
"/.).G.V.B.n.B.B.G.G.G.B.G.I.H.G.B.N.V.!.~.`.^.V.q.q.0. .0.'..X0.o.N..X+XN.0.M.m.Q.q.q.6.' '  . . .6.} { o.6.o.= C { x t.C./.H.{.",
"L.F.V.V.H.G.V.V.G.`.G.H.V.V.V.V.N.V.N.F.H.G.G.S.>.Q.9... .8.F.B.M.m.'.$X$X}.m.6.0.0.7.....| +.7.x.V.m.o.] .. .' A : ; a A.!.V.~.",
"V.B.V.B./.H.G.B.V.~.G.~.V.G.G.V.V.G.V.B.V.B.G.w.>.^.o...o.m.}.}.G.8.M.'.}.!.M.!.}.^.B.l.M.V.0.m.^.}.`.M.8.} ] - p H F s S.V.V.V.",
"V.B.n.B.B.B.V.B.V.V.G.N.B.G.~.I.~.`.G.B.N.V.V.4.>.7.8.8.+.^.*X#X.XG.m.B.N.N. XoX$X#X}.B.V.V.m.B.`.oXG.M.l.| : M s H S t D.N.V.B.",
"V.G.G.H.H.G.G.`.V.G.G.B.V.B.B.I.L.F.V.V.V.F.D.q.8.] O.M.+.!.$X&X#X^.G.m.!..X&XoX`.#X}.V.M.m.7.N.N.x.l.N.o.` : ' S p # a D.V.V.V.",
"G.U.G.G.{.H.B./.^.L.N.~.!.V.F.G.B.N.B.^.F.!.G.9.9.` q.'.c.m.'..X!.m.'.B.B.'..X'.'.'.G.m.8.8.....0.0.0.8.[ ' { M z F p @ u.^.B.G.",
").I.V.V.G.F.B.V.G.V.N.G.^.^.^.G.N.B.V.^./.|.D.%.o.| '.*X'.M.^.M.x.`.OXoX^.M.N.V.!.m.0.8... .B %... . .` ' ' ' F : M i a H T.!.`.",
"G.G.V.V.B.G.B.G.G.B.B.B.B.F.G.G.G.S.b.n.A.S.y.l 6.0..X&XoX^.`.M.8.+X&X$XoX^.m.9.8.8.6.6.+.' ' %...' : ' ' ' V ' | N n G W i.Q.I.",
"V.F.B.B.G.U.H.G.V.V.V.B.B.G.G.q.M.>.>.O.,.,.B - r.y.w.$X$X}.^.^.m.G.`..X$X^.B.m.8.O.0.M.M.m.7.x.^.5.M M M M ' 6. .- n F p i.V.B.",
"B.B.V.F.B.B.G.B.B.V./.H.!.w.q.8.c.N.`.^.N.M.7...' z S f.T.M. X+XN.M.q.M.^.0.^..X^.^.`.OX}.V.0.0.x.O.M a l  . . .= F z V a s.Q.D.",
"H.U./.V.V.V.B.N.F.H.B.q.<.%.m.G.'.oX*X$X'.^.Q.7.8.' M z # V h.}.oX&X XV.7.q.^.$XOXL.'.OXoXV.8.] ] ; A s B o.o. .M ; M S t E.^.F.",
"H.U.V.V.F.{.~.H./.z.+.o.{ 8.V.'.^.$X*XOX+X.XQ.0.7.} ` ..V # x g.W.&XOX'.`.M.9.m.N.O.0.V.V.0.} B : } *.' ` ` { : = ` V W J G.^.^.",
"V.B.V.n.B.G.~.I.q.9.V.z.6.8.`.'.N.`.+X*X+X.X^.Q.0...0.0...z F ' V R.'..X+X^.M.!.M.M.!.}.V.0.7.*.` k.M.8...= z F ; V H a d.V.V.V.",
"V.B.F.G.G.B.B.q.z.*XQ.9.o.B.OX.Xx.0.G.oX`.`.^.B.9.o.N.Q.0.[ z z : F D.`.^.^.V.}.[.oX+X+X+XV.x.8.8..X'.0.+.' c S F S p D H.V.B.B.",
"F.n.V.U.{.U.V.+.`.OXM.k.k.}.*X$XM.c.}.^.!.!.B.0.8.M.0.0.0. .- M ' F C m.0.M.m.!.V.}.`.^.^.B.x...o.N.x.[ { : F p H 9 i N.B.V.V.B.",
"V.B.V.V.G.U.j.} F.V.7.M.N.`.$X&X.X.X+X}.!.B.m.Q.Q.'.N.0.o.` ` ' ` ` l x ..X.[ 0.k.V.M.z.o.6. .` ] ..{ B = ; A @ E @ P V.N.V.G.N.",
"V.F.V.V.B.B.=.' 9.M.M.N.oXV.^.oX^.~..X!.m.F.M.N._.!.0.8.` [ } B '  .B # ' ` ` ` >.0.7...]  .%.V z M ' M F F a # A i.v.n.~.H.V.F.",
"Q.Q.!.!.'.w.%. .q..XQ.w.*X.XQ.q.N.}.oX'.B.x.x.6.9.m.k.0.x... .` ` : : A $ } ..' {  .] { ` V n B l S A u s s s a =.4.Z.A.L.G.B.V.",
"D.D.D.Q.!.q. .0.^.+XQ.0.+X*X0.Q..X+X+XoX.X^.m.6.0.^.'.B.q.6.} | ..: n u # ; : M ' ' V x F n ' ' ; F s # s s a m $.;.4.v.b.B.F.B.",
"Q.N.!.D.q.9.7.Q..X*X+XQ.Q.+X'.0.'.OX*X*X$X.XN.6.o.V.^.8...} ' o.7...' A B l a F M M n a l H V N V S s p 9 D v $.$.-.;.4.b.B.V.V.",
"!.'.!.Q.5.0.X.0..X#X'.0.0.}.+X0.8.^.`..X'.^.0.| ' ....[ ..` ' 6.7.6.` B ' c E a V B N F V F p a S # # c > , :.$.:.-.;.3.S.L.V.L.",
"^.!.Q.1.0.Q.X...0.^.0.q.0.}.*X+XV.M.8.0.0.0...] ' %.o.6.x.9.[ [ o...{ c : ' # $ 9 u H H i s 9 0 n c , $.$.$.$.-.$.;.2.j.n.U.H.{.",
"D.Q.D.%.^.q.....X.Q.^.^.q.N..X+X+XB.0.N.N.m.7.0.0.9.0.M.^.^.m...[  .{ A A M a . + w e o 3 =.=., #.&.-.-.-.-.$.$.2.2.j.b.n.G.V.G.",
"D.Q.w.,.0.0.+. .0.+X$X^.0.0.Q.^.N.V.'.OXoX'.V.m.G.M.m.^.+X}.N.k.+.' : a A F # $ U ^ h o < 3 > $.$.#.-.:.-.;.:.4.j.j.D.G.V.B.V.B.",
"Q.^.w.>.o.X.0.8.^.&X*X&X.XQ.q.!.V.$X&XoX&XoX^.V.B.x.m.^.^.V.m.m.[ ; : A s S $ U ,X-X~ k e X * -.:.:.;.2.:.2.j.4.n.B.P.F.V.B.V.F.",
"N.!.q.q.| X.Q.9.0.+X$XoXQ.D.Q.0..X+X+X'.oX}.N.0.x.7.7.0.0.k.N.6.` ' ' z a # # ! ,X-X~ ~ ) o ; 2.4.j.j.j.j.j.j.b.N.F.F.B.G.V.V.V.",
"^.^.5.9.%.q..X^.0.N.^.N.Q.[.'.!.B.!.^.!.!.M.m.+.o.| | 6.8.9.X.| ' } M z M S # t f ! h o o m 3.4.j.v.b.v.n.G.L.V.I.V.N.N.G.U.G.U.",
"^.w.y.X.O.^.*X+XQ.!.N.8.'.#X+XoXQ.0.m.M.m.7.+...{ : :  .` ` ` ' ' : V ' : A A a 0 6 6 ; =.v.b.v.b.N.n.N.B.V.U.U.G.B.B.B.B.P.I.{.",
"Q.w.z >.0.N.#X+X.X'.^.8.!.+X+X+X'.Q.0.6. .o.7.0.5.O. .M.1.B : = ; M } ..' F V a L C.B.B.B.N.G.F.B.G.B.B.B.B.B.B.V.G.G.C.V.B.V.V.",
"Q.w.' >.0.6.'.+X'.^..XQ.0.N.!.+X^.m.^.m.M.m.^.^.N.0.k.F.m.' z z : } .. .M F V S L C.F.B.B.B.G.L.L.V.V.L.V.V.V.N.V.V.L.L.G.B.B.G.",
"!.w.- %.0. .0.^.M.'.#X!.'.!.0.0.+.!.#X+X`..X&X#X'.m.6.6.| M p S X... .' F M n u T Q.B.G.G.B.B.B.B.N.B.L.L.G.G.G.V.V.V.B.N.P.F.B.",
"^.d.z ` X. . .0.M..X.X.X*X*X'.G.0.m.^.}.N.q.^.'.V.o.' ' : V z B  ...] : ' ; S # s.].U.{.C.V.L.P.V.G.L.C.B.F.G.).L.G.n.B.B.U.U.P.",
"Q.^.y.M ' X.7.q.0.N.'..X#X+X'.#X'.0.M.q.8.9.!.F.q.+.' M ..o.X.] ' : M ; ' V S H C.V.G.V.n.B.G.{.I.U.N.B.B.n.V.L.P.V.B.V.B.V.L.U.",
"D.Q.r.# z ` ..N.Q.7.m.B.Q.!.`..X'.V.^.'.^.'.+XXXB.0.9.} M.'.m.9.{ M s c F H $ d.C.B.B.B.B.V.B.F.G.G.N.N.V.B.B.B.V.V.G.G.L.B.B.B.",
"Q.D.Q.d.S - ] X.8...X.O.0.0.B.V.V.V.^.^.}.$X}.}.'.M.q.8.~.`.0...' B s H s 9 L F.V.F.B.B.G./.C.V.B.V.V.D.V.I.B.N.V.V.U.G.V.C.V.B.",
"F.N.Q.^.g.S ' ` *.' ` ' o.6.8.8.9.8.m.N.^.^.V.m.k.8.X. .6.8.` ' : V p p E p F.B.B.V.n.B.G.U.{.H.V.V.V.V.C.U.L.V.B.V.V.B.N.V.G.N.",
"Q.N.D.N.F.S E ' ' ' ' : ` ` ]  .{ ` X.8.m.0.0. ... .` : { ` B M B A $ # y e.n.F.G.F.B.B.V.B.F.V.B.L.L.P.G.G.I.G.F.F.N.B.V.G.F.N.",
"N.Q.!.F.Q.p.# A : ' ` ' M F ' ' {  .` ' O... .] ' ' V A A M N S S W W F 4.A.b.L./.V.V.I.G.U.N.B.C.B.L.G.B.V.B.B.C.U.U.V.{.L.V.V.",
"Q.D.!.!.Q.Q.y.# l V x A V V M ` o.} ' ` ] ' = : F J ' : F a # s S S a ; ;.4.Z.S.F.B.V.H.H.H.V.G.U.V.V.B.B.B.F.N.B.V.{.I.G.F.B.V.",
"D.B.Q.D.N.Q.D.d.y.x x A A M V : : l n N = n i u A B : ; F S a E s y v $.$.2.4.v.n.V.B.V.G.B.B.V.U.L.L.N.B.G.V.B.V.V.V.L.B.B.V.B.",
"N.^.!.Q.D.N.Q.B.p.F A n M M F F A a s n N N F n C S F F a # a 4 n =.$.$.;.;.3.v.G.B.G./.H.B.B.F.V.G.V.B.B.U.U.C.G.V.B.N.L.G.B.V.",
"U.).F.V.B.B.B.N.b.p.K C 4 u 9 W A # @ s n V V F A p @ D y 6 > $.#.-.-.-.-.;.3.b.L.U.{.H.V.V.B.B.B.V.C.V.B.G.P.L.L.V.B.N.G.U.G.{.",
"G.C.V.V.G.F.V.B.D.D.4.4.-.M 4 b 4 m 1 . 8 d d t C n 6 * #.$.:., =.=.=.:.:.2.j.b.F.G.G.V.V.G.G.V.B.V.{.U.G.G.B.V.F.B.B.V.B.G.G.U.",
"V.V.F.V.U.G.G.B.F.D.v.p.2.2.2.&.&.#.5 w j e w < ; =.;.$.#.-.-.-.:.;.:.2.4.j.M.B.B.V.B.V.B.G.I.L.B.B.L.P.L.G.V.C.V.V.V.G.B.V.F.V.",
"F.B.n.B.V.V.V.B.B.N.N.w.4.3.4.3., 7 q ^ -XY g o X 3 , -.$.-.;.:.;.;.4.v.b.F.P.V.B.B.V.B.B.V.B.B.V.B.B.V.B.B.V.L.U.I.{.G.V.B.V.B.",
"V.G.G.G.G.G.G.{.C.G.G.n.b.j.4.j.N r / <X:X/ ~ ^ w 3 -.2.4.2.3.4.4.j.j.b.F.H.F.V.V.V.V.F.C.G.G.V.U.I.C.G.B.V.V.N.G.U.L.B.V.V.V.V.",
"V.U.C.I.{.G.F.U.I.I.V.H.V.B.b.b.=.2 U ) =X/ h Q 7 v 3.4.Z.j.j.j.n.n.n.B.V.B.N.C.H.V.U.L.F.{.U.V.L.U.U.F.C.I.F.V.V.F.N.B.G.L.B.G.",
"/.U.B.V.L.B.B.V.F.V.B.V./.U.C.V.M.-.6 2 q e < 1 > j.j.j.v.b.b.n.B.U.L.U.V.B.D.B.U.U.{.F.V.G.F.B.V.V.G.B.B.U.).P.U.V.B.B.G.U.G.{.",
"G.V.B.V.B.V.B.H.G.B.V.B.F.F.C.V.B.V.C.v.e.e.2.b.n.n.n.n.L.B.N.V.B.G.G.G.B.B.V.V.V.G.G.B.V.V.V.V.F.I.B.B.B.B.G.G.V.B.V.V.V.F.G.P."
};
